<?xml version="1.0" encoding="UTF-8"?>
<svg id="Layer_2" data-name="Layer 2" xmlns="http://www.w3.org/2000/svg" viewBox="0 0 793.86 368.05">
  <defs>
    <style>
      .cls-1 {
        fill: #ddd;
      }

      .cls-1, .cls-2 {
        stroke: #333;
        stroke-miterlimit: 10;
        stroke-width: 2px;
      }

      .cls-2 {
        fill: #ff3b0d;
      }
    </style>
  </defs>
  <g id="Livello_1" data-name="Livello 1">
    <g>
      <path class="cls-1" d="M21.1,93.37l19.77,73.94,20.79-73.94h19.18l20.65,73.94,19.62-73.94h19.33l-29.14,101.18h-18.45l-21.67-75.56-21.82,75.56h-18.89L1.33,93.37h19.77Z"/>
      <path class="cls-1" d="M168.84,93.37v40.85h.29c3.81-7.47,10.98-12.01,21.23-12.01,20.35,0,25.48,13.18,25.48,30.16v42.02h-18.74v-37.92c0-10.54-1.9-18.89-12.74-18.89-11.57,0-15.52,9.66-15.52,21.52v35.29h-18.6v-101.03h18.6Z"/>
      <path class="cls-1" d="M265.18,196.02c-21.38,0-37.19-13.03-37.19-35.87s16.55-37.92,36.75-37.92c21.82,0,34.99,14.35,34.99,33.24,0,3.66-.29,9.52-.29,9.52h-52.13c1.76,11.27,10.4,16.69,21.08,16.69,9.52,0,18.01-4.25,21.38-7.17l7.32,10.1c-3.95,4.1-14.64,11.42-31.92,11.42ZM264.6,136.13c-11.13,0-16.99,7.76-17.57,16.69h33.97c-.29-7.76-3.22-16.69-16.4-16.69Z"/>
      <path class="cls-1" d="M330.78,123.54l-.29,11.42h.44c2.78-7.61,9.81-12.74,17.42-12.74,4.83,0,7.47,1.32,7.47,1.32l-1.32,16.25h-.88c-2.05-.59-5.27-.88-7.76-.88-5.56,0-9.93,2.27-12.45,6.88-1.88,3.45-2.64,8.35-2.64,13.76v34.85h-18.6v-70.87h18.6Z"/>
      <path class="cls-1" d="M395.15,196.02c-21.38,0-37.19-13.03-37.19-35.87s16.55-37.92,36.75-37.92c21.82,0,34.99,14.35,34.99,33.24,0,3.66-.29,9.52-.29,9.52h-52.13c1.76,11.27,10.4,16.69,21.08,16.69,9.52,0,18.01-4.25,21.38-7.17l7.32,10.1c-3.95,4.1-14.64,11.42-31.92,11.42ZM394.57,136.13c-11.13,0-16.99,7.76-17.57,16.69h33.97c-.29-7.76-3.22-16.69-16.4-16.69Z"/>
      <path class="cls-1" d="M670.99,174.2c6.74,0,11.71,4.1,11.71,10.98s-4.98,10.84-11.71,10.84-11.86-4.1-11.86-10.84,4.83-10.98,11.86-10.98Z"/>
      <path class="cls-1" d="M715.55,196.02c-13.76,0-24.89-7.47-24.89-22.26s14.5-20.5,29.14-21.52l16.99-1.17v-1.9c0-9.08-6-13.32-15.81-13.32s-17.13,3.51-20.21,5.86l-5.71-12.01c5.42-3.22,15.37-7.47,27.67-7.47s19.77,3.22,25.04,8.2c5.12,4.98,7.76,11.42,7.76,23.43v40.56h-18.01l-.29-8.2c-2.93,5.12-11.13,9.81-21.67,9.81ZM709.4,173.17c0,6,4.54,10.1,12.3,10.1,7.32,0,12.74-4.25,15.23-7.76v-13.03l-12.74.73c-9.96.59-14.79,3.95-14.79,9.96Z"/>
      <path class="cls-1" d="M781.59,91.47c6.59,0,11.27,4.39,11.27,10.4s-4.69,10.4-11.27,10.4-11.27-4.25-11.27-10.4,4.69-10.4,11.27-10.4Z"/>
      <rect class="cls-1" x="772.22" y="123.54" width="18.74" height="70.87"/>
      <path class="cls-2" d="M624.4,61.24c-20.46-20.47-47.67-31.74-76.61-31.74s-56.15,11.27-76.61,31.74c-9.26,9.26-16.66,19.9-22.02,31.63-1.2,2.61-2.31,5.33-3.3,8.09-.98,2.7-1.86,5.49-2.62,8.28l-.41,1.51h55.76v84.85h21.29v-84.85h27.67v-18.57h-76.35c16.06-26.87,45.21-43.47,76.58-43.47,49.16,0,89.16,39.99,89.16,89.16,0,16.99-4.8,33.51-13.87,47.78-7.58,11.92-17.83,21.82-29.9,28.96v21.7c11.57-5.33,22.05-12.66,31.22-21.83,20.47-20.46,31.74-47.67,31.74-76.61s-11.27-56.15-31.74-76.61Z"/>
      <path class="cls-2" d="M620.53,110.53v-18.36h-61.99v134.19c-3.51.43-7.12.65-10.75.65-49.16,0-89.16-39.99-89.16-89.16,0-4.78.38-9.54,1.13-14.22h-19.4c-.61,4.69-.92,9.45-.92,14.22,0,28.94,11.27,56.15,31.74,76.61,20.46,20.47,47.67,31.74,76.61,31.74,4.07,0,8.14-.22,12.08-.66,1.88-.2,3.82-.47,5.76-.79,1.04-.17,2.09-.36,3.14-.56.49-.1.97-.19,1.45-.3,2.91-.6,5.91-1.36,8.9-2.26l.86-.26v-86.77h38.22v-18.06h-38.22v-26.01h40.56Z"/>
      <path class="cls-1" d="M472.23,225.6l-89.63,113.04c12.43,9.32,24.86,18.64,37.28,27.96l78.11-122.77c-8.82-5.73-17.46-11.74-25.77-18.23ZM403.86,334.55l11.19,15.99-19.99-14.39s65.36-83.92,70.8-91.43l.36-.53c-.03.06-.16.24-.36.53l-62.01,89.83Z"/>
      <path class="cls-1" d="M573.25,18.7c62.53,13.42,103,73.57,92.7,136.01,1.09-3.48,2.04-7.04,2.82-10.68,13.7-63.83-26.93-126.67-90.76-140.38-60.5-12.99-120.11,22.84-137.83,80.97,23.05-49.19,77.7-77.81,133.07-65.92Z"/>
    </g>
  </g>
</svg>