<?xml version="1.0" encoding="utf-8"?>
<!-- Generator: Adobe Illustrator 28.2.0, SVG Export Plug-In . SVG Version: 6.00 Build 0)  -->
<svg version="1.1" xmlns="http://www.w3.org/2000/svg" xmlns:xlink="http://www.w3.org/1999/xlink" x="0px" y="0px"
	 viewBox="0 0 4096 4096" style="enable-background:new 0 0 4096 4096;" xml:space="preserve">
<style type="text/css">
	.st0{fill-rule:evenodd;clip-rule:evenodd;fill:#0C8901;}
	.st1{fill-rule:evenodd;clip-rule:evenodd;fill:#39FF14;}
	.st2{fill-rule:evenodd;clip-rule:evenodd;fill:#9CFF00;}
	.st3{fill-rule:evenodd;clip-rule:evenodd;fill:#FFFFFF;}
</style>
<g id="Layer_1">
	<ellipse id="BG_eyes" class="st0" cx="2049.5" cy="1628.3" rx="606.2" ry="549.6"/>
	<g id="Cat_Head">
		<path id="path0_00000097478803672782523620000007213242014069575828_" class="st1" d="M1419.8,776.5
			c-50.9,33.7-81.6,199.4-81.6,440.1c0,109.7-0.2,112.5-9.9,141c-154.5,451.9,171.2,868.7,691.6,884.9
			c538.5,16.8,901.8-402.4,753.5-869.6l-13-41l-2.1-142.6c-2.2-147.5-6.1-196.4-22.1-275.6c-40.6-200.5-93.4-196.1-318.1,26.6
			l-81.8,81.1l-43.2-9.6c-78.1-17.4-122.1-22.3-217.3-24.5c-117.9-2.8-173,2.4-278.8,26.5l-35.1,7.9l-82.2-81.2
			C1526.6,789.2,1462.1,748.5,1419.8,776.5 M1668.2,1605.2c50.2,20.3,103.3,36.5,140.7,43c41.7,7.2,48.7,10.9,48.7,25
			c0,68-235,14.5-248.3-56.5C1604.1,1588.3,1619.1,1585.4,1668.2,1605.2 M2486.5,1599.7c44,44-160.5,133.6-226.8,99.3
			c-40.3-20.8-24.3-42,41.1-54.3c32.3-6.1,93.7-24.9,146.5-44.6C2474.2,1589.9,2476.8,1589.9,2486.5,1599.7 M1853.7,1798.5
			c8.1,8.1,8.3,9.1,15.8,50.7c19.8,110.6,110.9,115.1,142,7.1c15.1-52.6,59.6-48.2,78.2,7.7c35.8,107.5,126.2,89.5,143-28.4
			c4.6-32.2,12.5-42.6,32.8-42.6c51.4,0,43.5,106.3-12.3,166c-53.5,57.3-152.6,54-193.5-6.3l-9-13.2l-16.3,19
			c-86.3,100.2-234.6,19.4-235.1-128C1799,1796,1831.8,1776.7,1853.7,1798.5"/>
	</g>
	<path id="Headphones" class="st2" d="M1931.8,287.5c-501.6,43.5-814.1,332.9-861,797.3l-2.6,26.2l-14.4,2.4
		c-84.7,14.2-150.5,77.9-175.4,169.6c-10.4,38.1-10.4,340.6,0,378.8c32.8,121.4,112.3,181.4,247.3,186.4
		c70.1,2.6,83.4,0.6,101.5-15.3c28.5-25.1,26.5-2,30-348.7c3.7-353.6,5.2-333.6-26.8-360.3c-20-16.8-20.6-20.6-11.3-79.2
		c38-236.4,173-421.2,382.3-523C1882,385.3,2294,398.8,2551,552.8c186.4,111.7,316,317.9,331.9,528.1l2.2,28.5l-12.9,7.8
		c-7.9,4.8-17.1,16.1-23.7,29.1l-10.8,21.3l1,312.5c1.2,354.2-1,330.8,33.5,355.2c37.2,26.2,178.7,14.7,236.8-19.2
		c51.6-30.3,91.6-84.9,110.2-150.3c10.8-38.3,10.9-353,0-388.2c-26.4-85.3-90.9-149.1-164.8-162.9l-23.6-4.4l-6.7-49.2
		c-55-405.2-308.5-673.9-709.6-752C2206.6,287.9,2036.8,278.4,1931.8,287.5"/>
</g>
<g id="Layer_2">
	<g id="svgg_00000040532490244285871660000005761866290201529481_">
		<path id="path0_00000098925999917050636350000007493473100701469588_" class="st3" d="M1073,2498.2
			c-35.3,12.9-50.7,36.9-47.6,74.2c7.8,94.5,144.7,89.3,144.7-5.5C1170,2515.9,1120.4,2480.8,1073,2498.2 M276.1,2761.4
			c-1.6,140.8-4.2,283.3-5.8,316.5l-2.9,60.5l60.9-1.3l60.9-1.3l3.4-136.6c1.9-75.1,4.6-171.4,6.1-214l2.8-77.4l76.6,150.2
			l76.6,150.2H592h37.2l80.3-157.1c77.8-152.1,80.3-156.4,81.4-136.6c2,39.2,14.9,390.9,14.9,407.1v16.3h59.7h59.7l-2.9-53.5
			c-3-54.3-13.3-319.2-19-487.1l-3.1-92.2l-66.5,0l-66.5,0l-84.9,173.1l-84.9,173.1l-88-173.1l-88-173.1l-71.1,0l-71.1,0
			L276.1,2761.4 M1796.5,2615.8c-8,291-12,419.9-14.4,469l-2.6,53.6l60.6-1.3l60.6-1.3l3.3-141.1c1.8-77.6,4.6-176.6,6.2-219.9
			l2.8-78.8l64.6,119.7c35.5,65.9,73.7,136.7,84.9,157.4l20.2,37.6l33.9-1.2l33.9-1.2l79.9-156.9l79.9-156.9l3.3,129.6
			c1.8,71.3,4.6,171.1,6.2,221.8l2.9,92.2h61.4h61.4l-2.9-51.2c-3-53.2-11.6-447-11.7-532.6l0-48.9l-69.4,0.1l-69.4,0.1l-37.8,73.9
			c-108.6,212.2-134.6,259.2-139.9,252c-2.8-3.8-43.9-78.8-91.3-166.5l-86.1-159.5l-68.8-0.1l-68.8-0.1L1796.5,2615.8
			 M3100.2,2610.1v59.2h-41h-41v50.1v50.1h40.7h40.7l1.4,140l1.4,140l12.8,26.1c28.5,58,100.1,82.3,186.2,63
			c44.7-10,44.5-9.8,44.5-58.4c0-39.3-0.7-42.7-8-39.5c-4.4,1.9-24.8,4.4-45.4,5.5c-67.2,3.5-74-11.9-74.1-168.4l0-108l64.9-1.3
			l64.9-1.3l1.3-48.9l1.3-48.9h-66.2h-66.2v-59.2v-59.2h-59.2h-59.2V2610.1 M2676.8,2664.3c-21.3,4.7-53.5,14.2-71.7,21l-33,12.4
			v49.6c0,27.2,0.7,49.6,1.5,49.6c0.8,0,14.6-5.4,30.7-12c128.2-52.7,231.8-30.4,231.8,49.8v15.4l-76.3,2.8
			c-167.4,6.2-230.9,47.7-230.9,151.1c0,133.6,155.4,189.3,285.5,102.4c25.3-16.9,26.2-17.1,26.2-7c0,5.8,1.3,16.9,2.8,24.7
			l2.8,14.2h54.3h54.3l-1.4-181c-1.5-199.9-1.5-199.3-33.1-236.9C2874,2665.1,2775.3,2642.4,2676.8,2664.3 M3550.5,2666.7
			c-225.5,62.2-200.8,432.1,31.7,475.9c58.2,11,125.9,1.8,180.2-24.4c54.4-26.3,52.7-22.7,32.4-68.1l-17.4-39l-21.3,10.8
			c-101.6,51.5-207.5,28.4-234.6-51.2c-13-38.2-26.3-35.2,150-33.8l157.1,1.3l-0.1-46.8c-0.2-124.3-49.1-198.4-148-224.2
			C3648.5,2658.8,3580,2658.6,3550.5,2666.7 M1038,2906v232.2h59.2h59.2V2906v-232.2h-59.2H1038V2906 M1262.3,2695.4
			c16.8,23.2,135.9,195.6,141.3,204.6c2.7,4.5-126.5,198-150,224.8c-11,12.5-7.6,13.3,58.6,13.2l64.9-0.1l48.2-72.8l48.2-72.8
			l48.6,72.9l48.6,72.9h70.6c38.8,0,70.5-1.1,70.5-2.4s-37-54.6-82.3-118.3l-82.2-115.8l11.1-14.9c6.1-8.2,42-59.4,79.8-113.9
			l68.7-99l-69.3,0.1l-69.3,0.1l-44.7,68.9l-44.7,68.9l-45.9-69l-45.9-69h-70.3h-70.3L1262.3,2695.4 M3661.7,2763.2
			c29.9,15.1,42.4,33.3,48.2,70.4l3.5,22.3h-100h-100l3-17.1C3529.2,2767.9,3599,2731.5,3661.7,2763.2 M2825.9,2927.1
			c9.7,2.6,10.2,5,10.2,45.7v43l-28.4,13.3c-104.7,48.9-190.2,12.7-150.5-63.7C2674.2,2932.8,2768,2911.6,2825.9,2927.1
			 M3266.5,3338.3c-16.4,18.1,3.7,45.2,27.1,36.7c5-1.8,11-8.7,13.4-15.2C3315.6,3335.8,3283.9,3319.1,3266.5,3338.3 M1807.3,3337.9
			c-103.3,33.5-116.6,178.7-21.1,229.4c38.1,20.2,102.4,12.5,133.6-16l10-9.2l-11.5-15l-11.5-15l-16.1,10.9
			c-56,38-120.5,2.8-121.1-66.1c-0.6-65.7,61.9-103.2,118.3-70.9l19.2,11l9.8-15.8c9.5-15.4,9.5-16,1.3-22.3
			C1891.3,3338.4,1837.2,3328.2,1807.3,3337.9 M328.2,3451.2c-23.6,61.9-43.7,115.2-44.9,118.3c-1.5,4.1,4.9,5.7,22.9,5.7h24.9
			l9.1-23.9l9.1-23.9l45.9-1.3l45.9-1.3l7.9,25.2l7.9,25.2h25.9h25.9l-32.8-85.4c-18-46.9-38.4-100.2-45.3-118.4l-12.5-33l-23.5,0.1
			l-23.5,0.1L328.2,3451.2 M564.5,3456.8v118.4h22.8h22.8v-118.4v-118.4h-22.8h-22.8V3456.8 M787.6,3457.3v118.8l55.8-1.7
			c104.7-3.2,152.1-47.6,143.2-134.1c-7.3-70.5-54.6-101.9-153.6-101.9h-45.3V3457.3 M1114,3341.7c-1.8,3-23.4,59.3-84.8,221.2
			l-4.8,12.7l25.5-1.4l25.5-1.4l8.9-23.9l8.9-23.9h44.8h44.8l8.4,23.3c9.6,26.7,11.3,27.8,39.2,25.9l20.5-1.4l-44.3-116.1
			l-44.3-116.1l-23-1.4C1126.5,3338.6,1115.2,3339.7,1114,3341.7 M1262.1,3346.4c1.2,4.4,16.3,57.7,33.5,118.5l31.4,110.6l24.6-1.3
			l24.6-1.3l10.9-41c6-22.5,15.7-59.4,21.6-81.9c5.9-22.5,11.7-37.9,13-34.1c1.2,3.8,7.8,27.3,14.5,52.4c6.7,25,16.2,59.3,21.1,76.3
			l8.9,30.7h23.8h23.8l31-112.1c17.1-61.7,32.1-114.9,33.4-118.4c1.9-4.9-3.7-6.3-25.4-6.3c-19.2,0-27.8,1.7-27.7,5.7
			c0.1,9-38.2,164.4-39.4,159.9c-0.6-2.2-10.7-40.4-22.5-84.8l-21.4-80.8h-21.6h-21.6l-9.5,35.3c-5.2,19.4-15.3,57.7-22.5,85.1
			l-13,49.8l-16.9-68c-9.3-37.4-19-75.7-21.4-85.1l-4.5-17.1h-25.4C1263.4,3338.5,1260.3,3339.5,1262.1,3346.4 M904.9,3388.5
			c65.2,39.7,37.4,140.6-40,144.9l-31.7,1.8v-77.9v-77.9l28.5,0C881.9,3379.5,894.2,3382,904.9,3388.5 M411.1,3440l15.4,44.2h-31.6
			c-23.4,0-31.1-1.5-29.5-5.7c1.2-3.1,7.9-23.6,15-45.4c7.1-21.8,13.4-39.2,14.1-38.5C395.2,3395.2,402.7,3415.7,411.1,3440
			 M1154.7,3441l14.8,43.2h-31.1h-31.1l14.3-45c7.9-24.8,15.2-44.2,16.3-43.2C1138.9,3397,1146.5,3417.2,1154.7,3441 M2037.9,3404.3
			c-75.4,26.9-76.6,137.2-1.9,168.4c50.5,21.1,110.1-8,120.9-59C2173,3437.8,2109,3379,2037.9,3404.3 M2281.7,3406.7
			c-16.7,7.6-19.9,7.9-22.1,2.2c-1.6-4.1-8.6-6.7-18-6.7h-15.4v86.5v86.5h20.5h20.5v-63.6V3448l13.4-6.9
			c41.1-21.2,52.6-5.2,52.6,73.2v61l19.3,0l19.4,0v-61.1c0-68,5.5-80,37-80c26.9,0,31.3,11.2,31.3,79.7v61.5h20.5h20.5l-0.1-67.1
			c-0.1-99.6-28.3-130.5-92.9-101.9c-21.4,9.5-21.4,9.5-38.2,0.5C2328.9,3395.3,2306.8,3395.4,2281.7,3406.7 M2617.8,3406.8
			c-18.2,8.5-20.9,8.8-25.5,2.4c-2.8-3.9-11.6-7.1-19.5-7.1h-14.3v124v124.1h20.5h20.5v-44.2V3562l19.3,8.8
			c60.9,27.6,125-25.3,115.4-95.3C2726.1,3416.1,2669.5,3382.7,2617.8,3406.8 M2828,3405.5c-23.6,7-24.1,7.4-21.1,21.3
			c4,18.8,3.8,18.7,24.1,12.6c40.9-12.3,78-2.8,78,20c0,10.6-1.3,11.1-28.4,11.1c-56.4,0.1-89.9,19.6-89.9,52.4
			c0,49.2,57.8,72.8,107.1,43.7c14.7-8.7,15-8.7,17.3-0.2c1.7,6.5,6.4,8.7,18.6,8.7h16.4v-69.9
			C2950,3402.6,2920.2,3378.3,2828,3405.5 M3086.8,3407c-17.8,8.1-20.7,8.4-24.1,2.2c-2.3-4.2-10.2-7-19.6-7h-15.7v86.5v86.5h20.5
			h20.5v-61.3c0-69.4,2-73.3,40.3-78.4c32.5-4.4,37.1,5.5,37.1,78.3v61.5h23.2h23.2l-1.6-68
			C3188.3,3407.8,3155.3,3375.9,3086.8,3407 M3431,3404.3c-80,28.5-74.8,149.1,7.4,171.2c78.8,21.2,140.8-59.4,102-132.7
			C3521.1,3406.4,3472.8,3389.4,3431,3404.3 M3678.6,3407c-17.8,8.1-20.7,8.4-24.1,2.2c-2.3-4.2-10.2-7-19.6-7h-15.7v86.5v86.5h20.5
			h20.5v-61.5v-61.5l14.8-9c45.8-27.9,62.6-9,62.6,70.6v61.5l21.6,0h21.6l-1.4-67.2C3777.2,3406.5,3746.8,3376.1,3678.6,3407
			 M3264.1,3488.7v86.5h20.5h20.5v-86.5v-86.5h-20.5h-20.5V3488.7 M2090.9,3439c33.5,15.3,35.2,80.9,2.6,97.8
			c-29.2,15.1-59.1,1.8-67.7-30.2C2013,3459,2050.1,3420.4,2090.9,3439 M2676.2,3449.6c42.3,42.3-11.8,116.4-62,84.9
			c-21.3-13.4-22.9-75.2-2.3-91.5C2629,3429.6,2659.3,3432.7,2676.2,3449.6 M3492.8,3447.4c13.7,12.3,14.9,15.4,14.9,41.3
			c0,63-72.9,77-89.1,17C3404.1,3452,3454,3412.7,3492.8,3447.4 M2909,3513.2c0,34.9-68,45.4-72,11.1c-2.1-17.5,13.4-26.5,45.6-26.5
			h26.3V3513.2"/>
	</g>
</g>
</svg>
