<?xml version="1.0" encoding="utf-8"?>
<!-- Generator: Adobe Illustrator 28.2.0, SVG Export Plug-In . SVG Version: 6.00 Build 0)  -->
<svg version="1.1" id="Layer_1" xmlns="http://www.w3.org/2000/svg" xmlns:xlink="http://www.w3.org/1999/xlink" x="0px" y="0px"
	 viewBox="0 0 2160 2160" style="enable-background:new 0 0 2160 2160;" xml:space="preserve">
<style type="text/css">
	.st0{fill-rule:evenodd;clip-rule:evenodd;fill:#0C8901;}
	.st1{fill-rule:evenodd;clip-rule:evenodd;fill:#39FF14;}
	.st2{fill-rule:evenodd;clip-rule:evenodd;fill:#9CFF00;}
</style>
<ellipse id="BG_eyes" class="st0" cx="1080.4" cy="1397" rx="526.8" ry="477.6"/>
<g id="Cat_Head">
	<path id="path0" class="st1" d="M533.2,656.7C489,686,462.3,830,462.3,1039.2c0,95.3-0.2,97.8-8.6,122.5
		c-134.3,392.7,148.8,754.9,601,769c468,14.6,783.7-349.7,654.8-755.7l-11.3-35.6l-1.8-123.9c-1.9-128.2-5.3-170.7-19.2-239.5
		c-35.3-174.2-81.2-170.4-276.4,23.1l-71.1,70.5l-37.5-8.3c-67.9-15.1-106.1-19.4-188.8-21.3c-102.5-2.4-150.3,2.1-242.3,23
		l-30.5,6.9l-71.4-70.6C626,667.8,569.9,632.4,533.2,656.7 M749,1376.9c43.6,17.6,89.8,31.7,122.3,37.4c36.2,6.3,42.3,9.5,42.3,21.7
		c0,59.1-204.2,12.6-215.8-49.1C693.3,1362.2,706.4,1359.7,749,1376.9 M1460.2,1372.1c38.2,38.2-139.5,116.1-197.1,86.3
		c-35-18.1-21.1-36.5,35.7-47.2c28.1-5.3,81.4-21.6,127.3-38.8C1449.5,1363.6,1451.7,1363.6,1460.2,1372.1 M910.2,1544.9
		c7,7,7.2,7.9,13.7,44.1c17.2,96.1,96.4,100,123.4,6.2c13.1-45.7,51.8-41.9,68,6.7c31.1,93.4,109.7,77.8,124.3-24.7
		c4-28,10.9-37,28.5-37c44.7,0,37.8,92.4-10.7,144.3c-46.5,49.8-132.6,46.9-168.2-5.5l-7.8-11.5l-14.2,16.5
		c-75,87.1-203.9,16.9-204.3-111.2C862.7,1542.7,891.2,1525.9,910.2,1544.9"/>
</g>
<path id="Headphones" class="st2" d="M978.1,231.8c-435.9,37.8-707.5,289.3-748.2,692.9l-2.3,22.8l-12.5,2.1
	c-73.6,12.3-130.8,67.7-152.4,147.4c-9,33.1-9,296,0,329.2c28.5,105.5,97.6,157.6,214.9,162c60.9,2.3,72.5,0.5,88.2-13.3
	c24.8-21.8,23-1.7,26.1-303c3.2-307.3,4.5-289.9-23.3-313.1c-17.4-14.6-17.9-17.9-9.8-68.8c33-205.4,150.3-366,332.2-454.5
	c243.8-118.7,601.9-107,825.2,26.8c162,97.1,274.6,276.3,288.4,458.9l1.9,24.8l-11.2,6.8c-6.9,4.2-14.9,14-20.6,25.3l-9.4,18.5
	l0.9,271.6c1,307.8-0.9,287.5,29.1,308.7c32.3,22.8,155.3,12.8,205.8-16.7c44.8-26.3,79.6-73.8,95.8-130.6
	c9.4-33.3,9.5-306.8,0-337.4c-22.9-74.1-79-129.6-143.2-141.6l-20.5-3.8l-5.8-42.8c-47.8-352.1-268.1-585.6-616.7-653.5
	C1216.9,232.1,1069.4,223.9,978.1,231.8"/>
</svg>
